<?xml version="1.0" standalone="no"?>
<!DOCTYPE svg PUBLIC "-//W3C//DTD SVG 20010904//EN"
 "http://www.w3.org/TR/2001/REC-SVG-20010904/DTD/svg10.dtd">
<svg version="1.0" xmlns="http://www.w3.org/2000/svg"
 width="800.000000pt" height="802.000000pt" viewBox="0 0 800.000000 802.000000"
 preserveAspectRatio="xMidYMid meet">
<metadata>
Created by potrace 1.14, written by Peter Selinger 2001-2017
</metadata>
<g transform="translate(0.000000,802.000000) scale(0.100000,-0.100000)"
fill="#000000" stroke="none">
<path d="M3530 7080 l0 -130 -260 0 -260 0 0 -125 0 -125 -255 0 -255 0 0
-130 0 -130 -255 0 -255 0 0 -255 0 -255 -125 0 -125 0 0 -255 0 -255 -130 0
-130 0 0 -510 0 -510 130 0 130 0 0 -385 0 -385 -510 0 -510 0 0 -125 0 -125
-130 0 -130 0 0 -130 0 -130 130 0 130 0 0 -130 0 -130 255 0 255 0 0 -125 0
-125 -130 0 -130 0 0 -130 0 -130 -125 0 -125 0 0 -125 0 -125 -130 0 -130 0
0 -130 0 -130 130 0 130 0 0 -125 0 -125 510 0 510 0 0 -255 0 -255 125 0 125
0 0 -130 0 -130 130 0 130 0 0 130 0 130 125 0 125 0 0 125 0 125 130 0 130 0
0 -125 0 -125 125 0 125 0 0 -130 0 -130 130 0 130 0 0 -125 0 -125 130 0 130
0 0 125 0 125 125 0 125 0 0 255 0 255 130 0 130 0 0 -125 0 -125 125 0 125 0
0 -130 0 -130 255 0 255 0 0 -125 0 -125 130 0 130 0 0 125 0 125 125 0 125 0
0 255 0 255 -125 0 -125 0 0 130 0 130 255 0 255 0 0 125 0 125 125 0 125 0 0
130 0 130 -125 0 -125 0 0 125 0 125 -255 0 -255 0 0 130 0 130 125 0 125 0 0
125 0 125 130 0 130 0 0 130 0 130 125 0 125 0 0 130 0 130 130 0 130 0 0 125
0 125 125 0 125 0 0 255 0 255 130 0 130 0 0 640 0 640 -130 0 -130 0 0 255 0
255 -125 0 -125 0 0 255 0 255 -130 0 -130 0 0 130 0 130 -125 0 -125 0 0 125
0 125 -255 0 -255 0 0 130 0 130 -765 0 -765 0 0 -130z m1530 -255 l0 -125
255 0 255 0 0 -130 0 -130 125 0 125 0 0 -130 0 -130 -125 0 -125 0 0 130 0
130 -255 0 -255 0 0 130 0 130 -255 0 -255 0 0 125 0 125 255 0 255 0 0 -125z
m250 -1025 l0 -130 -125 0 -125 0 0 130 0 130 125 0 125 0 0 -130z m770 -125
l0 -255 125 0 125 0 0 -255 0 -255 -125 0 -125 0 0 255 0 255 -130 0 -130 0 0
255 0 255 130 0 130 0 0 -255z m-2300 -130 l0 -125 -125 0 -125 0 0 125 0 125
125 0 125 0 0 -125z"/>
<path d="M6850 6565 l0 -385 380 0 380 0 0 385 0 385 -380 0 -380 0 0 -385z
m510 5 l0 -130 -130 0 -130 0 0 130 0 130 130 0 130 0 0 -130z"/>
<path d="M6850 3635 l0 -255 255 0 255 0 0 255 0 255 -255 0 -255 0 0 -255z"/>
<path d="M6080 2480 l0 -380 385 0 385 0 0 380 0 380 -385 0 -385 0 0 -380z
m510 0 l0 -130 -130 0 -130 0 0 130 0 130 130 0 130 0 0 -130z"/>
</g>
</svg>
