<?xml version="1.0" encoding="utf-8" standalone="no"?>
<!DOCTYPE svg PUBLIC "-//W3C//DTD SVG 1.1//EN"
  "http://www.w3.org/Graphics/SVG/1.1/DTD/svg11.dtd">
<!-- Created with matplotlib (https://matplotlib.org/) -->
<svg height="321.95625pt" version="1.1" viewBox="0 0 619.322668 321.95625" width="619.322668pt" xmlns="http://www.w3.org/2000/svg" xmlns:xlink="http://www.w3.org/1999/xlink">
 <defs>
  <style type="text/css">
*{stroke-linecap:butt;stroke-linejoin:round;}
  </style>
 </defs>
 <g id="figure_1">
  <g id="patch_1">
   <path d="M 0 321.95625 
L 619.322668 321.95625 
L 619.322668 0 
L 0 0 
z
" style="fill:#ffffff;"/>
  </g>
  <g id="axes_1">
   <g id="patch_2">
    <path d="M 43.78125 284.4 
L 601.78125 284.4 
L 601.78125 7.2 
L 43.78125 7.2 
z
" style="fill:#ffffff;"/>
   </g>
   <g id="matplotlib.axis_1">
    <g id="xtick_1">
     <g id="line2d_1">
      <defs>
       <path d="M 0 0 
L 0 3.5 
" id="m4067cc67e3" style="stroke:#000000;stroke-width:0.8;"/>
      </defs>
      <g>
       <use style="stroke:#000000;stroke-width:0.8;" x="68.270278" xlink:href="#m4067cc67e3" y="284.4"/>
      </g>
     </g>
     <g id="text_1">
      <!-- 0 -->
      <defs>
       <path d="M 31.78125 66.40625 
Q 24.171875 66.40625 20.328125 58.90625 
Q 16.5 51.421875 16.5 36.375 
Q 16.5 21.390625 20.328125 13.890625 
Q 24.171875 6.390625 31.78125 6.390625 
Q 39.453125 6.390625 43.28125 13.890625 
Q 47.125 21.390625 47.125 36.375 
Q 47.125 51.421875 43.28125 58.90625 
Q 39.453125 66.40625 31.78125 66.40625 
z
M 31.78125 74.21875 
Q 44.046875 74.21875 50.515625 64.515625 
Q 56.984375 54.828125 56.984375 36.375 
Q 56.984375 17.96875 50.515625 8.265625 
Q 44.046875 -1.421875 31.78125 -1.421875 
Q 19.53125 -1.421875 13.0625 8.265625 
Q 6.59375 17.96875 6.59375 36.375 
Q 6.59375 54.828125 13.0625 64.515625 
Q 19.53125 74.21875 31.78125 74.21875 
z
" id="DejaVuSans-48"/>
      </defs>
      <g transform="translate(65.089028 298.998438)scale(0.1 -0.1)">
       <use xlink:href="#DejaVuSans-48"/>
      </g>
     </g>
    </g>
    <g id="xtick_2">
     <g id="line2d_2">
      <g>
       <use style="stroke:#000000;stroke-width:0.8;" x="155.731093" xlink:href="#m4067cc67e3" y="284.4"/>
      </g>
     </g>
     <g id="text_2">
      <!-- 100000 -->
      <defs>
       <path d="M 12.40625 8.296875 
L 28.515625 8.296875 
L 28.515625 63.921875 
L 10.984375 60.40625 
L 10.984375 69.390625 
L 28.421875 72.90625 
L 38.28125 72.90625 
L 38.28125 8.296875 
L 54.390625 8.296875 
L 54.390625 0 
L 12.40625 0 
z
" id="DejaVuSans-49"/>
      </defs>
      <g transform="translate(136.643593 298.998438)scale(0.1 -0.1)">
       <use xlink:href="#DejaVuSans-49"/>
       <use x="63.623047" xlink:href="#DejaVuSans-48"/>
       <use x="127.246094" xlink:href="#DejaVuSans-48"/>
       <use x="190.869141" xlink:href="#DejaVuSans-48"/>
       <use x="254.492188" xlink:href="#DejaVuSans-48"/>
       <use x="318.115234" xlink:href="#DejaVuSans-48"/>
      </g>
     </g>
    </g>
    <g id="xtick_3">
     <g id="line2d_3">
      <g>
       <use style="stroke:#000000;stroke-width:0.8;" x="243.191908" xlink:href="#m4067cc67e3" y="284.4"/>
      </g>
     </g>
     <g id="text_3">
      <!-- 200000 -->
      <defs>
       <path d="M 19.1875 8.296875 
L 53.609375 8.296875 
L 53.609375 0 
L 7.328125 0 
L 7.328125 8.296875 
Q 12.9375 14.109375 22.625 23.890625 
Q 32.328125 33.6875 34.8125 36.53125 
Q 39.546875 41.84375 41.421875 45.53125 
Q 43.3125 49.21875 43.3125 52.78125 
Q 43.3125 58.59375 39.234375 62.25 
Q 35.15625 65.921875 28.609375 65.921875 
Q 23.96875 65.921875 18.8125 64.3125 
Q 13.671875 62.703125 7.8125 59.421875 
L 7.8125 69.390625 
Q 13.765625 71.78125 18.9375 73 
Q 24.125 74.21875 28.421875 74.21875 
Q 39.75 74.21875 46.484375 68.546875 
Q 53.21875 62.890625 53.21875 53.421875 
Q 53.21875 48.921875 51.53125 44.890625 
Q 49.859375 40.875 45.40625 35.40625 
Q 44.1875 33.984375 37.640625 27.21875 
Q 31.109375 20.453125 19.1875 8.296875 
z
" id="DejaVuSans-50"/>
      </defs>
      <g transform="translate(224.104408 298.998438)scale(0.1 -0.1)">
       <use xlink:href="#DejaVuSans-50"/>
       <use x="63.623047" xlink:href="#DejaVuSans-48"/>
       <use x="127.246094" xlink:href="#DejaVuSans-48"/>
       <use x="190.869141" xlink:href="#DejaVuSans-48"/>
       <use x="254.492188" xlink:href="#DejaVuSans-48"/>
       <use x="318.115234" xlink:href="#DejaVuSans-48"/>
      </g>
     </g>
    </g>
    <g id="xtick_4">
     <g id="line2d_4">
      <g>
       <use style="stroke:#000000;stroke-width:0.8;" x="330.652723" xlink:href="#m4067cc67e3" y="284.4"/>
      </g>
     </g>
     <g id="text_4">
      <!-- 300000 -->
      <defs>
       <path d="M 40.578125 39.3125 
Q 47.65625 37.796875 51.625 33 
Q 55.609375 28.21875 55.609375 21.1875 
Q 55.609375 10.40625 48.1875 4.484375 
Q 40.765625 -1.421875 27.09375 -1.421875 
Q 22.515625 -1.421875 17.65625 -0.515625 
Q 12.796875 0.390625 7.625 2.203125 
L 7.625 11.71875 
Q 11.71875 9.328125 16.59375 8.109375 
Q 21.484375 6.890625 26.8125 6.890625 
Q 36.078125 6.890625 40.9375 10.546875 
Q 45.796875 14.203125 45.796875 21.1875 
Q 45.796875 27.640625 41.28125 31.265625 
Q 36.765625 34.90625 28.71875 34.90625 
L 20.21875 34.90625 
L 20.21875 43.015625 
L 29.109375 43.015625 
Q 36.375 43.015625 40.234375 45.921875 
Q 44.09375 48.828125 44.09375 54.296875 
Q 44.09375 59.90625 40.109375 62.90625 
Q 36.140625 65.921875 28.71875 65.921875 
Q 24.65625 65.921875 20.015625 65.03125 
Q 15.375 64.15625 9.8125 62.3125 
L 9.8125 71.09375 
Q 15.4375 72.65625 20.34375 73.4375 
Q 25.25 74.21875 29.59375 74.21875 
Q 40.828125 74.21875 47.359375 69.109375 
Q 53.90625 64.015625 53.90625 55.328125 
Q 53.90625 49.265625 50.4375 45.09375 
Q 46.96875 40.921875 40.578125 39.3125 
z
" id="DejaVuSans-51"/>
      </defs>
      <g transform="translate(311.565223 298.998438)scale(0.1 -0.1)">
       <use xlink:href="#DejaVuSans-51"/>
       <use x="63.623047" xlink:href="#DejaVuSans-48"/>
       <use x="127.246094" xlink:href="#DejaVuSans-48"/>
       <use x="190.869141" xlink:href="#DejaVuSans-48"/>
       <use x="254.492188" xlink:href="#DejaVuSans-48"/>
       <use x="318.115234" xlink:href="#DejaVuSans-48"/>
      </g>
     </g>
    </g>
    <g id="xtick_5">
     <g id="line2d_5">
      <g>
       <use style="stroke:#000000;stroke-width:0.8;" x="418.113538" xlink:href="#m4067cc67e3" y="284.4"/>
      </g>
     </g>
     <g id="text_5">
      <!-- 400000 -->
      <defs>
       <path d="M 37.796875 64.3125 
L 12.890625 25.390625 
L 37.796875 25.390625 
z
M 35.203125 72.90625 
L 47.609375 72.90625 
L 47.609375 25.390625 
L 58.015625 25.390625 
L 58.015625 17.1875 
L 47.609375 17.1875 
L 47.609375 0 
L 37.796875 0 
L 37.796875 17.1875 
L 4.890625 17.1875 
L 4.890625 26.703125 
z
" id="DejaVuSans-52"/>
      </defs>
      <g transform="translate(399.026038 298.998438)scale(0.1 -0.1)">
       <use xlink:href="#DejaVuSans-52"/>
       <use x="63.623047" xlink:href="#DejaVuSans-48"/>
       <use x="127.246094" xlink:href="#DejaVuSans-48"/>
       <use x="190.869141" xlink:href="#DejaVuSans-48"/>
       <use x="254.492188" xlink:href="#DejaVuSans-48"/>
       <use x="318.115234" xlink:href="#DejaVuSans-48"/>
      </g>
     </g>
    </g>
    <g id="xtick_6">
     <g id="line2d_6">
      <g>
       <use style="stroke:#000000;stroke-width:0.8;" x="505.574353" xlink:href="#m4067cc67e3" y="284.4"/>
      </g>
     </g>
     <g id="text_6">
      <!-- 500000 -->
      <defs>
       <path d="M 10.796875 72.90625 
L 49.515625 72.90625 
L 49.515625 64.59375 
L 19.828125 64.59375 
L 19.828125 46.734375 
Q 21.96875 47.46875 24.109375 47.828125 
Q 26.265625 48.1875 28.421875 48.1875 
Q 40.625 48.1875 47.75 41.5 
Q 54.890625 34.8125 54.890625 23.390625 
Q 54.890625 11.625 47.5625 5.09375 
Q 40.234375 -1.421875 26.90625 -1.421875 
Q 22.3125 -1.421875 17.546875 -0.640625 
Q 12.796875 0.140625 7.71875 1.703125 
L 7.71875 11.625 
Q 12.109375 9.234375 16.796875 8.0625 
Q 21.484375 6.890625 26.703125 6.890625 
Q 35.15625 6.890625 40.078125 11.328125 
Q 45.015625 15.765625 45.015625 23.390625 
Q 45.015625 31 40.078125 35.4375 
Q 35.15625 39.890625 26.703125 39.890625 
Q 22.75 39.890625 18.8125 39.015625 
Q 14.890625 38.140625 10.796875 36.28125 
z
" id="DejaVuSans-53"/>
      </defs>
      <g transform="translate(486.486853 298.998438)scale(0.1 -0.1)">
       <use xlink:href="#DejaVuSans-53"/>
       <use x="63.623047" xlink:href="#DejaVuSans-48"/>
       <use x="127.246094" xlink:href="#DejaVuSans-48"/>
       <use x="190.869141" xlink:href="#DejaVuSans-48"/>
       <use x="254.492188" xlink:href="#DejaVuSans-48"/>
       <use x="318.115234" xlink:href="#DejaVuSans-48"/>
      </g>
     </g>
    </g>
    <g id="xtick_7">
     <g id="line2d_7">
      <g>
       <use style="stroke:#000000;stroke-width:0.8;" x="593.035168" xlink:href="#m4067cc67e3" y="284.4"/>
      </g>
     </g>
     <g id="text_7">
      <!-- 600000 -->
      <defs>
       <path d="M 33.015625 40.375 
Q 26.375 40.375 22.484375 35.828125 
Q 18.609375 31.296875 18.609375 23.390625 
Q 18.609375 15.53125 22.484375 10.953125 
Q 26.375 6.390625 33.015625 6.390625 
Q 39.65625 6.390625 43.53125 10.953125 
Q 47.40625 15.53125 47.40625 23.390625 
Q 47.40625 31.296875 43.53125 35.828125 
Q 39.65625 40.375 33.015625 40.375 
z
M 52.59375 71.296875 
L 52.59375 62.3125 
Q 48.875 64.0625 45.09375 64.984375 
Q 41.3125 65.921875 37.59375 65.921875 
Q 27.828125 65.921875 22.671875 59.328125 
Q 17.53125 52.734375 16.796875 39.40625 
Q 19.671875 43.65625 24.015625 45.921875 
Q 28.375 48.1875 33.59375 48.1875 
Q 44.578125 48.1875 50.953125 41.515625 
Q 57.328125 34.859375 57.328125 23.390625 
Q 57.328125 12.15625 50.6875 5.359375 
Q 44.046875 -1.421875 33.015625 -1.421875 
Q 20.359375 -1.421875 13.671875 8.265625 
Q 6.984375 17.96875 6.984375 36.375 
Q 6.984375 53.65625 15.1875 63.9375 
Q 23.390625 74.21875 37.203125 74.21875 
Q 40.921875 74.21875 44.703125 73.484375 
Q 48.484375 72.75 52.59375 71.296875 
z
" id="DejaVuSans-54"/>
      </defs>
      <g transform="translate(573.947668 298.998438)scale(0.1 -0.1)">
       <use xlink:href="#DejaVuSans-54"/>
       <use x="63.623047" xlink:href="#DejaVuSans-48"/>
       <use x="127.246094" xlink:href="#DejaVuSans-48"/>
       <use x="190.869141" xlink:href="#DejaVuSans-48"/>
       <use x="254.492188" xlink:href="#DejaVuSans-48"/>
       <use x="318.115234" xlink:href="#DejaVuSans-48"/>
      </g>
     </g>
    </g>
    <g id="text_8">
     <!-- no. of instances -->
     <defs>
      <path d="M 54.890625 33.015625 
L 54.890625 0 
L 45.90625 0 
L 45.90625 32.71875 
Q 45.90625 40.484375 42.875 44.328125 
Q 39.84375 48.1875 33.796875 48.1875 
Q 26.515625 48.1875 22.3125 43.546875 
Q 18.109375 38.921875 18.109375 30.90625 
L 18.109375 0 
L 9.078125 0 
L 9.078125 54.6875 
L 18.109375 54.6875 
L 18.109375 46.1875 
Q 21.34375 51.125 25.703125 53.5625 
Q 30.078125 56 35.796875 56 
Q 45.21875 56 50.046875 50.171875 
Q 54.890625 44.34375 54.890625 33.015625 
z
" id="DejaVuSans-110"/>
      <path d="M 30.609375 48.390625 
Q 23.390625 48.390625 19.1875 42.75 
Q 14.984375 37.109375 14.984375 27.296875 
Q 14.984375 17.484375 19.15625 11.84375 
Q 23.34375 6.203125 30.609375 6.203125 
Q 37.796875 6.203125 41.984375 11.859375 
Q 46.1875 17.53125 46.1875 27.296875 
Q 46.1875 37.015625 41.984375 42.703125 
Q 37.796875 48.390625 30.609375 48.390625 
z
M 30.609375 56 
Q 42.328125 56 49.015625 48.375 
Q 55.71875 40.765625 55.71875 27.296875 
Q 55.71875 13.875 49.015625 6.21875 
Q 42.328125 -1.421875 30.609375 -1.421875 
Q 18.84375 -1.421875 12.171875 6.21875 
Q 5.515625 13.875 5.515625 27.296875 
Q 5.515625 40.765625 12.171875 48.375 
Q 18.84375 56 30.609375 56 
z
" id="DejaVuSans-111"/>
      <path d="M 10.6875 12.40625 
L 21 12.40625 
L 21 0 
L 10.6875 0 
z
" id="DejaVuSans-46"/>
      <path id="DejaVuSans-32"/>
      <path d="M 37.109375 75.984375 
L 37.109375 68.5 
L 28.515625 68.5 
Q 23.6875 68.5 21.796875 66.546875 
Q 19.921875 64.59375 19.921875 59.515625 
L 19.921875 54.6875 
L 34.71875 54.6875 
L 34.71875 47.703125 
L 19.921875 47.703125 
L 19.921875 0 
L 10.890625 0 
L 10.890625 47.703125 
L 2.296875 47.703125 
L 2.296875 54.6875 
L 10.890625 54.6875 
L 10.890625 58.5 
Q 10.890625 67.625 15.140625 71.796875 
Q 19.390625 75.984375 28.609375 75.984375 
z
" id="DejaVuSans-102"/>
      <path d="M 9.421875 54.6875 
L 18.40625 54.6875 
L 18.40625 0 
L 9.421875 0 
z
M 9.421875 75.984375 
L 18.40625 75.984375 
L 18.40625 64.59375 
L 9.421875 64.59375 
z
" id="DejaVuSans-105"/>
      <path d="M 44.28125 53.078125 
L 44.28125 44.578125 
Q 40.484375 46.53125 36.375 47.5 
Q 32.28125 48.484375 27.875 48.484375 
Q 21.1875 48.484375 17.84375 46.4375 
Q 14.5 44.390625 14.5 40.28125 
Q 14.5 37.15625 16.890625 35.375 
Q 19.28125 33.59375 26.515625 31.984375 
L 29.59375 31.296875 
Q 39.15625 29.25 43.1875 25.515625 
Q 47.21875 21.78125 47.21875 15.09375 
Q 47.21875 7.46875 41.1875 3.015625 
Q 35.15625 -1.421875 24.609375 -1.421875 
Q 20.21875 -1.421875 15.453125 -0.5625 
Q 10.6875 0.296875 5.421875 2 
L 5.421875 11.28125 
Q 10.40625 8.6875 15.234375 7.390625 
Q 20.0625 6.109375 24.8125 6.109375 
Q 31.15625 6.109375 34.5625 8.28125 
Q 37.984375 10.453125 37.984375 14.40625 
Q 37.984375 18.0625 35.515625 20.015625 
Q 33.0625 21.96875 24.703125 23.78125 
L 21.578125 24.515625 
Q 13.234375 26.265625 9.515625 29.90625 
Q 5.8125 33.546875 5.8125 39.890625 
Q 5.8125 47.609375 11.28125 51.796875 
Q 16.75 56 26.8125 56 
Q 31.78125 56 36.171875 55.265625 
Q 40.578125 54.546875 44.28125 53.078125 
z
" id="DejaVuSans-115"/>
      <path d="M 18.3125 70.21875 
L 18.3125 54.6875 
L 36.8125 54.6875 
L 36.8125 47.703125 
L 18.3125 47.703125 
L 18.3125 18.015625 
Q 18.3125 11.328125 20.140625 9.421875 
Q 21.96875 7.515625 27.59375 7.515625 
L 36.8125 7.515625 
L 36.8125 0 
L 27.59375 0 
Q 17.1875 0 13.234375 3.875 
Q 9.28125 7.765625 9.28125 18.015625 
L 9.28125 47.703125 
L 2.6875 47.703125 
L 2.6875 54.6875 
L 9.28125 54.6875 
L 9.28125 70.21875 
z
" id="DejaVuSans-116"/>
      <path d="M 34.28125 27.484375 
Q 23.390625 27.484375 19.1875 25 
Q 14.984375 22.515625 14.984375 16.5 
Q 14.984375 11.71875 18.140625 8.90625 
Q 21.296875 6.109375 26.703125 6.109375 
Q 34.1875 6.109375 38.703125 11.40625 
Q 43.21875 16.703125 43.21875 25.484375 
L 43.21875 27.484375 
z
M 52.203125 31.203125 
L 52.203125 0 
L 43.21875 0 
L 43.21875 8.296875 
Q 40.140625 3.328125 35.546875 0.953125 
Q 30.953125 -1.421875 24.3125 -1.421875 
Q 15.921875 -1.421875 10.953125 3.296875 
Q 6 8.015625 6 15.921875 
Q 6 25.140625 12.171875 29.828125 
Q 18.359375 34.515625 30.609375 34.515625 
L 43.21875 34.515625 
L 43.21875 35.40625 
Q 43.21875 41.609375 39.140625 45 
Q 35.0625 48.390625 27.6875 48.390625 
Q 23 48.390625 18.546875 47.265625 
Q 14.109375 46.140625 10.015625 43.890625 
L 10.015625 52.203125 
Q 14.9375 54.109375 19.578125 55.046875 
Q 24.21875 56 28.609375 56 
Q 40.484375 56 46.34375 49.84375 
Q 52.203125 43.703125 52.203125 31.203125 
z
" id="DejaVuSans-97"/>
      <path d="M 48.78125 52.59375 
L 48.78125 44.1875 
Q 44.96875 46.296875 41.140625 47.34375 
Q 37.3125 48.390625 33.40625 48.390625 
Q 24.65625 48.390625 19.8125 42.84375 
Q 14.984375 37.3125 14.984375 27.296875 
Q 14.984375 17.28125 19.8125 11.734375 
Q 24.65625 6.203125 33.40625 6.203125 
Q 37.3125 6.203125 41.140625 7.25 
Q 44.96875 8.296875 48.78125 10.40625 
L 48.78125 2.09375 
Q 45.015625 0.34375 40.984375 -0.53125 
Q 36.96875 -1.421875 32.421875 -1.421875 
Q 20.0625 -1.421875 12.78125 6.34375 
Q 5.515625 14.109375 5.515625 27.296875 
Q 5.515625 40.671875 12.859375 48.328125 
Q 20.21875 56 33.015625 56 
Q 37.15625 56 41.109375 55.140625 
Q 45.0625 54.296875 48.78125 52.59375 
z
" id="DejaVuSans-99"/>
      <path d="M 56.203125 29.59375 
L 56.203125 25.203125 
L 14.890625 25.203125 
Q 15.484375 15.921875 20.484375 11.0625 
Q 25.484375 6.203125 34.421875 6.203125 
Q 39.59375 6.203125 44.453125 7.46875 
Q 49.3125 8.734375 54.109375 11.28125 
L 54.109375 2.78125 
Q 49.265625 0.734375 44.1875 -0.34375 
Q 39.109375 -1.421875 33.890625 -1.421875 
Q 20.796875 -1.421875 13.15625 6.1875 
Q 5.515625 13.8125 5.515625 26.8125 
Q 5.515625 40.234375 12.765625 48.109375 
Q 20.015625 56 32.328125 56 
Q 43.359375 56 49.78125 48.890625 
Q 56.203125 41.796875 56.203125 29.59375 
z
M 47.21875 32.234375 
Q 47.125 39.59375 43.09375 43.984375 
Q 39.0625 48.390625 32.421875 48.390625 
Q 24.90625 48.390625 20.390625 44.140625 
Q 15.875 39.890625 15.1875 32.171875 
z
" id="DejaVuSans-101"/>
     </defs>
     <g transform="translate(283.18125 312.676562)scale(0.1 -0.1)">
      <use xlink:href="#DejaVuSans-110"/>
      <use x="63.378906" xlink:href="#DejaVuSans-111"/>
      <use x="124.544922" xlink:href="#DejaVuSans-46"/>
      <use x="156.332031" xlink:href="#DejaVuSans-32"/>
      <use x="188.119141" xlink:href="#DejaVuSans-111"/>
      <use x="249.300781" xlink:href="#DejaVuSans-102"/>
      <use x="284.505859" xlink:href="#DejaVuSans-32"/>
      <use x="316.292969" xlink:href="#DejaVuSans-105"/>
      <use x="344.076172" xlink:href="#DejaVuSans-110"/>
      <use x="407.455078" xlink:href="#DejaVuSans-115"/>
      <use x="459.554688" xlink:href="#DejaVuSans-116"/>
      <use x="498.763672" xlink:href="#DejaVuSans-97"/>
      <use x="560.042969" xlink:href="#DejaVuSans-110"/>
      <use x="623.421875" xlink:href="#DejaVuSans-99"/>
      <use x="678.402344" xlink:href="#DejaVuSans-101"/>
      <use x="739.925781" xlink:href="#DejaVuSans-115"/>
     </g>
    </g>
   </g>
   <g id="matplotlib.axis_2">
    <g id="ytick_1">
     <g id="line2d_8">
      <defs>
       <path d="M 0 0 
L -3.5 0 
" id="ma5083345a3" style="stroke:#000000;stroke-width:0.8;"/>
      </defs>
      <g>
       <use style="stroke:#000000;stroke-width:0.8;" x="43.78125" xlink:href="#ma5083345a3" y="258.867961"/>
      </g>
     </g>
     <g id="text_9">
      <!-- 0.3 -->
      <g transform="translate(20.878125 262.66718)scale(0.1 -0.1)">
       <use xlink:href="#DejaVuSans-48"/>
       <use x="63.623047" xlink:href="#DejaVuSans-46"/>
       <use x="95.410156" xlink:href="#DejaVuSans-51"/>
      </g>
     </g>
    </g>
    <g id="ytick_2">
     <g id="line2d_9">
      <g>
       <use style="stroke:#000000;stroke-width:0.8;" x="43.78125" xlink:href="#ma5083345a3" y="223.916505"/>
      </g>
     </g>
     <g id="text_10">
      <!-- 0.4 -->
      <g transform="translate(20.878125 227.715724)scale(0.1 -0.1)">
       <use xlink:href="#DejaVuSans-48"/>
       <use x="63.623047" xlink:href="#DejaVuSans-46"/>
       <use x="95.410156" xlink:href="#DejaVuSans-52"/>
      </g>
     </g>
    </g>
    <g id="ytick_3">
     <g id="line2d_10">
      <g>
       <use style="stroke:#000000;stroke-width:0.8;" x="43.78125" xlink:href="#ma5083345a3" y="188.965049"/>
      </g>
     </g>
     <g id="text_11">
      <!-- 0.5 -->
      <g transform="translate(20.878125 192.764267)scale(0.1 -0.1)">
       <use xlink:href="#DejaVuSans-48"/>
       <use x="63.623047" xlink:href="#DejaVuSans-46"/>
       <use x="95.410156" xlink:href="#DejaVuSans-53"/>
      </g>
     </g>
    </g>
    <g id="ytick_4">
     <g id="line2d_11">
      <g>
       <use style="stroke:#000000;stroke-width:0.8;" x="43.78125" xlink:href="#ma5083345a3" y="154.013592"/>
      </g>
     </g>
     <g id="text_12">
      <!-- 0.6 -->
      <g transform="translate(20.878125 157.812811)scale(0.1 -0.1)">
       <use xlink:href="#DejaVuSans-48"/>
       <use x="63.623047" xlink:href="#DejaVuSans-46"/>
       <use x="95.410156" xlink:href="#DejaVuSans-54"/>
      </g>
     </g>
    </g>
    <g id="ytick_5">
     <g id="line2d_12">
      <g>
       <use style="stroke:#000000;stroke-width:0.8;" x="43.78125" xlink:href="#ma5083345a3" y="119.062136"/>
      </g>
     </g>
     <g id="text_13">
      <!-- 0.7 -->
      <defs>
       <path d="M 8.203125 72.90625 
L 55.078125 72.90625 
L 55.078125 68.703125 
L 28.609375 0 
L 18.3125 0 
L 43.21875 64.59375 
L 8.203125 64.59375 
z
" id="DejaVuSans-55"/>
      </defs>
      <g transform="translate(20.878125 122.861355)scale(0.1 -0.1)">
       <use xlink:href="#DejaVuSans-48"/>
       <use x="63.623047" xlink:href="#DejaVuSans-46"/>
       <use x="95.410156" xlink:href="#DejaVuSans-55"/>
      </g>
     </g>
    </g>
    <g id="ytick_6">
     <g id="line2d_13">
      <g>
       <use style="stroke:#000000;stroke-width:0.8;" x="43.78125" xlink:href="#ma5083345a3" y="84.11068"/>
      </g>
     </g>
     <g id="text_14">
      <!-- 0.8 -->
      <defs>
       <path d="M 31.78125 34.625 
Q 24.75 34.625 20.71875 30.859375 
Q 16.703125 27.09375 16.703125 20.515625 
Q 16.703125 13.921875 20.71875 10.15625 
Q 24.75 6.390625 31.78125 6.390625 
Q 38.8125 6.390625 42.859375 10.171875 
Q 46.921875 13.96875 46.921875 20.515625 
Q 46.921875 27.09375 42.890625 30.859375 
Q 38.875 34.625 31.78125 34.625 
z
M 21.921875 38.8125 
Q 15.578125 40.375 12.03125 44.71875 
Q 8.5 49.078125 8.5 55.328125 
Q 8.5 64.0625 14.71875 69.140625 
Q 20.953125 74.21875 31.78125 74.21875 
Q 42.671875 74.21875 48.875 69.140625 
Q 55.078125 64.0625 55.078125 55.328125 
Q 55.078125 49.078125 51.53125 44.71875 
Q 48 40.375 41.703125 38.8125 
Q 48.828125 37.15625 52.796875 32.3125 
Q 56.78125 27.484375 56.78125 20.515625 
Q 56.78125 9.90625 50.3125 4.234375 
Q 43.84375 -1.421875 31.78125 -1.421875 
Q 19.734375 -1.421875 13.25 4.234375 
Q 6.78125 9.90625 6.78125 20.515625 
Q 6.78125 27.484375 10.78125 32.3125 
Q 14.796875 37.15625 21.921875 38.8125 
z
M 18.3125 54.390625 
Q 18.3125 48.734375 21.84375 45.5625 
Q 25.390625 42.390625 31.78125 42.390625 
Q 38.140625 42.390625 41.71875 45.5625 
Q 45.3125 48.734375 45.3125 54.390625 
Q 45.3125 60.0625 41.71875 63.234375 
Q 38.140625 66.40625 31.78125 66.40625 
Q 25.390625 66.40625 21.84375 63.234375 
Q 18.3125 60.0625 18.3125 54.390625 
z
" id="DejaVuSans-56"/>
      </defs>
      <g transform="translate(20.878125 87.909898)scale(0.1 -0.1)">
       <use xlink:href="#DejaVuSans-48"/>
       <use x="63.623047" xlink:href="#DejaVuSans-46"/>
       <use x="95.410156" xlink:href="#DejaVuSans-56"/>
      </g>
     </g>
    </g>
    <g id="ytick_7">
     <g id="line2d_14">
      <g>
       <use style="stroke:#000000;stroke-width:0.8;" x="43.78125" xlink:href="#ma5083345a3" y="49.159223"/>
      </g>
     </g>
     <g id="text_15">
      <!-- 0.9 -->
      <defs>
       <path d="M 10.984375 1.515625 
L 10.984375 10.5 
Q 14.703125 8.734375 18.5 7.8125 
Q 22.3125 6.890625 25.984375 6.890625 
Q 35.75 6.890625 40.890625 13.453125 
Q 46.046875 20.015625 46.78125 33.40625 
Q 43.953125 29.203125 39.59375 26.953125 
Q 35.25 24.703125 29.984375 24.703125 
Q 19.046875 24.703125 12.671875 31.3125 
Q 6.296875 37.9375 6.296875 49.421875 
Q 6.296875 60.640625 12.9375 67.421875 
Q 19.578125 74.21875 30.609375 74.21875 
Q 43.265625 74.21875 49.921875 64.515625 
Q 56.59375 54.828125 56.59375 36.375 
Q 56.59375 19.140625 48.40625 8.859375 
Q 40.234375 -1.421875 26.421875 -1.421875 
Q 22.703125 -1.421875 18.890625 -0.6875 
Q 15.09375 0.046875 10.984375 1.515625 
z
M 30.609375 32.421875 
Q 37.25 32.421875 41.125 36.953125 
Q 45.015625 41.5 45.015625 49.421875 
Q 45.015625 57.28125 41.125 61.84375 
Q 37.25 66.40625 30.609375 66.40625 
Q 23.96875 66.40625 20.09375 61.84375 
Q 16.21875 57.28125 16.21875 49.421875 
Q 16.21875 41.5 20.09375 36.953125 
Q 23.96875 32.421875 30.609375 32.421875 
z
" id="DejaVuSans-57"/>
      </defs>
      <g transform="translate(20.878125 52.958442)scale(0.1 -0.1)">
       <use xlink:href="#DejaVuSans-48"/>
       <use x="63.623047" xlink:href="#DejaVuSans-46"/>
       <use x="95.410156" xlink:href="#DejaVuSans-57"/>
      </g>
     </g>
    </g>
    <g id="ytick_8">
     <g id="line2d_15">
      <g>
       <use style="stroke:#000000;stroke-width:0.8;" x="43.78125" xlink:href="#ma5083345a3" y="14.207767"/>
      </g>
     </g>
     <g id="text_16">
      <!-- 1.0 -->
      <g transform="translate(20.878125 18.006986)scale(0.1 -0.1)">
       <use xlink:href="#DejaVuSans-49"/>
       <use x="63.623047" xlink:href="#DejaVuSans-46"/>
       <use x="95.410156" xlink:href="#DejaVuSans-48"/>
      </g>
     </g>
    </g>
    <g id="text_17">
     <!-- accuracy -->
     <defs>
      <path d="M 8.5 21.578125 
L 8.5 54.6875 
L 17.484375 54.6875 
L 17.484375 21.921875 
Q 17.484375 14.15625 20.5 10.265625 
Q 23.53125 6.390625 29.59375 6.390625 
Q 36.859375 6.390625 41.078125 11.03125 
Q 45.3125 15.671875 45.3125 23.6875 
L 45.3125 54.6875 
L 54.296875 54.6875 
L 54.296875 0 
L 45.3125 0 
L 45.3125 8.40625 
Q 42.046875 3.421875 37.71875 1 
Q 33.40625 -1.421875 27.6875 -1.421875 
Q 18.265625 -1.421875 13.375 4.4375 
Q 8.5 10.296875 8.5 21.578125 
z
M 31.109375 56 
z
" id="DejaVuSans-117"/>
      <path d="M 41.109375 46.296875 
Q 39.59375 47.171875 37.8125 47.578125 
Q 36.03125 48 33.890625 48 
Q 26.265625 48 22.1875 43.046875 
Q 18.109375 38.09375 18.109375 28.8125 
L 18.109375 0 
L 9.078125 0 
L 9.078125 54.6875 
L 18.109375 54.6875 
L 18.109375 46.1875 
Q 20.953125 51.171875 25.484375 53.578125 
Q 30.03125 56 36.53125 56 
Q 37.453125 56 38.578125 55.875 
Q 39.703125 55.765625 41.0625 55.515625 
z
" id="DejaVuSans-114"/>
      <path d="M 32.171875 -5.078125 
Q 28.375 -14.84375 24.75 -17.8125 
Q 21.140625 -20.796875 15.09375 -20.796875 
L 7.90625 -20.796875 
L 7.90625 -13.28125 
L 13.1875 -13.28125 
Q 16.890625 -13.28125 18.9375 -11.515625 
Q 21 -9.765625 23.484375 -3.21875 
L 25.09375 0.875 
L 2.984375 54.6875 
L 12.5 54.6875 
L 29.59375 11.921875 
L 46.6875 54.6875 
L 56.203125 54.6875 
z
" id="DejaVuSans-121"/>
     </defs>
     <g transform="translate(14.798438 168.359375)rotate(-90)scale(0.1 -0.1)">
      <use xlink:href="#DejaVuSans-97"/>
      <use x="61.279297" xlink:href="#DejaVuSans-99"/>
      <use x="116.259766" xlink:href="#DejaVuSans-99"/>
      <use x="171.240234" xlink:href="#DejaVuSans-117"/>
      <use x="234.619141" xlink:href="#DejaVuSans-114"/>
      <use x="275.732422" xlink:href="#DejaVuSans-97"/>
      <use x="337.011719" xlink:href="#DejaVuSans-99"/>
      <use x="391.992188" xlink:href="#DejaVuSans-121"/>
     </g>
    </g>
   </g>
   <g id="line2d_16">
    <path clip-path="url(#pa727953733)" d="M 69.144886 160.304854 
L 70.019495 238.596117 
L 70.894103 271.100971 
L 71.768711 177.081553 
L 72.643319 176.732039 
L 73.517927 238.246602 
L 74.392535 241.741748 
L 75.267143 232.304854 
L 76.141752 234.401942 
L 77.01636 158.207767 
L 77.890968 194.207767 
L 78.765576 205.392233 
L 79.640184 230.906796 
L 80.514792 271.8 
L 81.3894 219.023301 
L 82.264009 97.042718 
L 83.138617 86.906796 
L 84.013225 89.702913 
L 84.887833 101.935922 
L 85.762441 84.460194 
L 86.637049 81.664078 
L 87.511658 69.081553 
L 88.386266 64.537864 
L 89.260874 94.945631 
L 90.135482 82.712621 
L 91.01009 77.819417 
L 91.884698 66.285437 
L 92.759306 90.052427 
L 93.633915 78.867961 
L 94.508523 77.120388 
L 95.383131 82.363107 
L 96.257739 93.547573 
L 98.006955 105.431068 
L 98.881563 94.596117 
L 99.756172 128.499029 
L 100.63078 98.091262 
L 101.505388 78.518447 
L 102.379996 77.469903 
L 103.254604 86.207767 
L 104.129212 19.8 
L 105.003821 29.236893 
L 105.878429 36.576699 
L 106.753037 118.712621 
L 107.627645 127.450485 
L 108.502253 103.333981 
L 109.376861 106.479612 
L 111.126078 87.256311 
L 112.000686 99.838835 
L 112.875294 92.149515 
L 113.749902 98.790291 
L 114.62451 96.693204 
L 115.499118 93.198058 
L 116.373726 126.052427 
L 117.248335 130.945631 
L 118.122943 131.295146 
L 118.997551 122.906796 
L 119.872159 82.013592 
L 120.746767 66.285437 
L 121.621375 60.343689 
L 122.495984 98.440777 
L 123.370592 122.207767 
L 124.2452 140.03301 
L 125.119808 136.887379 
L 125.994416 124.304854 
L 126.869024 117.664078 
L 127.743632 94.246602 
L 129.492849 78.168932 
L 131.242065 132.693204 
L 132.116673 141.081553 
L 132.991281 112.421359 
L 133.865889 119.41165 
L 134.740498 87.95534 
L 135.615106 79.916505 
L 136.489714 77.819417 
L 137.364322 87.256311 
L 138.23893 82.712621 
L 139.113538 88.304854 
L 139.988147 94.945631 
L 140.862755 90.401942 
L 141.737363 72.576699 
L 142.611971 86.207767 
L 143.486579 93.897087 
L 144.361187 97.042718 
L 145.235795 89.702913 
L 146.110404 69.431068 
L 146.985012 83.062136 
L 147.85962 85.858252 
L 148.734228 47.41165 
L 150.483444 41.819417 
L 151.358053 40.421359 
L 152.232661 52.304854 
L 153.107269 66.984466 
L 153.981877 69.780583 
L 154.856485 83.062136 
L 155.731093 85.858252 
L 156.605701 96.693204 
L 158.354918 109.974757 
L 159.229526 108.576699 
L 160.104134 120.460194 
L 160.978742 83.761165 
L 161.85335 86.557282 
L 162.727958 90.401942 
L 165.351783 62.790291 
L 166.226391 63.139806 
L 167.100999 64.18835 
L 167.975607 62.790291 
L 168.850216 62.440777 
L 169.724824 69.431068 
L 170.599432 95.994175 
L 171.47404 66.634951 
L 172.348648 71.87767 
L 173.223256 100.18835 
L 174.097864 104.732039 
L 174.972473 132.343689 
L 175.847081 109.625243 
L 176.721689 99.838835 
L 177.596297 93.897087 
L 178.470905 102.634951 
L 179.345513 99.838835 
L 180.220121 106.130097 
L 181.969338 78.518447 
L 182.843946 53.003883 
L 183.718554 45.664078 
L 184.593162 76.770874 
L 185.46777 79.56699 
L 186.342379 64.537864 
L 188.091595 82.712621 
L 188.966203 78.518447 
L 189.840811 75.72233 
L 190.715419 70.130097 
L 191.590027 81.664078 
L 192.464636 86.906796 
L 193.339244 90.751456 
L 194.213852 105.780583 
L 195.08846 107.528155 
L 196.837676 142.479612 
L 197.712284 133.042718 
L 198.586893 135.838835 
L 199.461501 120.460194 
L 200.336109 164.149515 
L 201.210717 114.867961 
L 202.085325 94.596117 
L 202.959933 88.654369 
L 203.834542 94.596117 
L 204.70915 54.052427 
L 205.583758 44.615534 
L 206.458366 39.372816 
L 207.332974 62.790291 
L 208.207582 98.440777 
L 209.08219 108.227184 
L 209.956799 95.295146 
L 210.831407 99.48932 
L 211.706015 99.139806 
L 212.580623 114.867961 
L 213.455231 128.499029 
L 214.329839 138.634951 
L 215.204447 107.178641 
L 216.079056 66.984466 
L 216.953664 68.732039 
L 217.828272 55.8 
L 218.70288 72.227184 
L 219.577488 134.091262 
L 220.452096 127.8 
L 221.326705 158.557282 
L 222.201313 156.460194 
L 223.075921 168.343689 
L 223.950529 207.139806 
L 224.825137 146.673786 
L 225.699745 166.246602 
L 226.574353 150.168932 
L 227.448962 152.615534 
L 228.32357 133.741748 
L 229.198178 149.469903 
L 230.072786 159.95534 
L 230.947394 165.897087 
L 231.822002 158.906796 
L 232.696611 125.353398 
L 233.571219 146.673786 
L 234.445827 174.984466 
L 235.320435 144.576699 
L 236.195043 133.741748 
L 237.069651 142.829126 
L 237.944259 138.984466 
L 238.818868 165.547573 
L 239.693476 174.285437 
L 240.568084 159.256311 
L 241.442692 166.246602 
L 242.3173 140.03301 
L 243.191908 129.198058 
L 244.066516 138.984466 
L 245.815733 125.003883 
L 246.690341 130.246602 
L 247.564949 134.091262 
L 248.439557 106.479612 
L 249.314165 98.790291 
L 250.188774 108.576699 
L 251.063382 116.965049 
L 251.93799 118.363107 
L 252.812598 123.256311 
L 253.687206 173.586408 
L 254.561814 181.625243 
L 255.436422 164.848544 
L 256.311031 215.528155 
L 257.185639 218.673786 
L 258.060247 202.596117 
L 258.934855 171.48932 
L 259.809463 129.897087 
L 260.684071 115.217476 
L 261.558679 109.275728 
L 262.433288 130.596117 
L 263.307896 129.198058 
L 264.182504 146.324272 
L 265.057112 140.382524 
L 265.93172 135.48932 
L 266.806328 124.654369 
L 267.680937 132.693204 
L 268.555545 136.18835 
L 269.430153 145.275728 
L 270.304761 140.732039 
L 271.179369 143.528155 
L 272.053977 152.615534 
L 272.928585 174.984466 
L 273.803194 174.634951 
L 274.677802 181.974757 
L 275.55241 190.712621 
L 276.427018 180.926214 
L 277.301626 200.848544 
L 278.176234 194.207767 
L 279.050842 172.887379 
L 279.925451 197.003883 
L 280.800059 181.275728 
L 281.674667 171.48932 
L 282.549275 155.062136 
L 283.423883 145.625243 
L 284.298491 134.440777 
L 285.1731 118.712621 
L 286.047708 122.557282 
L 286.922316 105.780583 
L 287.796924 132.343689 
L 288.671532 127.450485 
L 289.54614 125.003883 
L 290.420748 142.130097 
L 291.295357 109.974757 
L 293.044573 150.168932 
L 293.919181 125.353398 
L 294.793789 140.382524 
L 295.668397 152.266019 
L 296.543005 184.770874 
L 297.417614 184.770874 
L 298.292222 171.838835 
L 299.16683 175.333981 
L 300.041438 223.56699 
L 300.916046 231.605825 
L 301.790654 218.673786 
L 302.665263 158.906796 
L 304.414479 175.683495 
L 305.289087 172.887379 
L 306.163695 188.266019 
L 307.038303 210.984466 
L 307.912911 198.751456 
L 308.78752 169.392233 
L 309.662128 187.916505 
L 310.536736 157.508738 
L 312.285952 167.994175 
L 313.16056 177.780583 
L 314.035168 177.431068 
L 314.909777 201.547573 
L 315.784385 200.848544 
L 316.658993 201.198058 
L 317.533601 189.314563 
L 318.408209 216.227184 
L 319.282817 220.071845 
L 320.157426 200.848544 
L 321.032034 205.741748 
L 321.906642 228.809709 
L 323.655858 239.295146 
L 324.530466 221.120388 
L 325.405074 232.304854 
L 326.279683 219.023301 
L 327.154291 212.732039 
L 328.028899 221.120388 
L 328.903507 213.081553 
L 329.778115 227.41165 
L 330.652723 220.421359 
L 331.527332 192.809709 
L 332.40194 183.72233 
L 333.276548 162.401942 
L 334.151156 166.246602 
L 335.025764 168.693204 
L 335.900372 176.03301 
L 336.77498 156.809709 
L 337.649589 159.605825 
L 338.524197 178.479612 
L 339.398805 189.664078 
L 340.273413 150.168932 
L 341.148021 151.217476 
L 342.022629 134.091262 
L 342.897237 149.819417 
L 343.771846 157.159223 
L 344.646454 145.275728 
L 345.521062 129.198058 
L 346.39567 145.275728 
L 347.270278 157.159223 
L 348.144886 183.72233 
L 349.019495 169.392233 
L 349.894103 163.450485 
L 350.768711 181.974757 
L 351.643319 188.615534 
L 352.517927 185.469903 
L 353.392535 194.207767 
L 354.267143 172.887379 
L 355.141752 165.547573 
L 356.01636 174.634951 
L 356.890968 182.324272 
L 357.765576 171.48932 
L 358.640184 169.392233 
L 360.3894 182.673786 
L 361.264009 162.401942 
L 362.138617 187.217476 
L 363.013225 178.479612 
L 363.887833 151.56699 
L 364.762441 111.372816 
L 365.637049 140.03301 
L 366.511658 150.518447 
L 367.386266 166.246602 
L 368.260874 169.741748 
L 369.135482 164.499029 
L 370.01009 172.887379 
L 370.884698 161.353398 
L 371.759306 170.440777 
L 372.633915 177.081553 
L 373.508523 195.605825 
L 374.383131 200.499029 
L 375.257739 187.217476 
L 376.132347 214.829126 
L 377.006955 206.440777 
L 377.881563 230.557282 
L 378.756172 221.120388 
L 379.63078 199.100971 
L 380.505388 204.343689 
L 381.379996 208.537864 
L 382.254604 213.780583 
L 383.129212 177.081553 
L 384.003821 169.741748 
L 384.878429 160.654369 
L 385.753037 157.858252 
L 386.627645 158.557282 
L 387.502253 157.858252 
L 389.251469 191.761165 
L 390.126078 205.392233 
L 391.000686 199.100971 
L 391.875294 182.673786 
L 392.749902 186.867961 
L 393.62451 200.149515 
L 394.499118 177.431068 
L 395.373726 182.324272 
L 396.248335 184.421359 
L 397.122943 187.56699 
L 397.997551 197.003883 
L 398.872159 186.867961 
L 399.746767 206.440777 
L 400.621375 185.819417 
L 401.495984 195.95534 
L 402.370592 191.761165 
L 403.2452 192.809709 
L 404.119808 188.965049 
L 404.994416 185.819417 
L 405.869024 197.003883 
L 406.743632 179.528155 
L 407.618241 167.64466 
L 408.492849 148.770874 
L 409.367457 124.304854 
L 410.242065 131.994175 
L 411.116673 137.935922 
L 411.991281 166.945631 
L 412.865889 135.139806 
L 413.740498 157.508738 
L 414.615106 157.508738 
L 416.364322 184.770874 
L 417.23893 197.003883 
L 418.113538 178.829126 
L 418.988147 195.95534 
L 419.862755 181.974757 
L 420.737363 202.596117 
L 421.611971 159.95534 
L 422.486579 169.741748 
L 423.361187 135.48932 
L 424.235795 166.945631 
L 425.110404 128.149515 
L 425.985012 133.042718 
L 426.85962 149.819417 
L 427.734228 121.858252 
L 428.608836 165.547573 
L 429.483444 131.994175 
L 430.358053 156.809709 
L 431.232661 136.887379 
L 432.107269 147.372816 
L 432.981877 134.440777 
L 433.856485 153.314563 
L 434.731093 149.819417 
L 435.605701 167.64466 
L 436.48031 160.654369 
L 437.354918 139.683495 
L 438.229526 143.528155 
L 439.104134 159.256311 
L 439.978742 145.974757 
L 440.85335 151.56699 
L 441.727958 162.401942 
L 442.602567 155.761165 
L 443.477175 142.130097 
L 444.351783 120.460194 
L 445.226391 120.460194 
L 446.100999 124.654369 
L 446.975607 116.965049 
L 447.850216 127.8 
L 448.724824 136.537864 
L 449.599432 117.314563 
L 450.47404 118.712621 
L 451.348648 92.848544 
L 452.223256 102.984466 
L 453.972473 118.013592 
L 454.847081 101.935922 
L 455.721689 114.867961 
L 456.596297 101.586408 
L 457.470905 111.023301 
L 458.345513 115.916505 
L 459.220121 132.693204 
L 460.09473 133.042718 
L 460.969338 118.013592 
L 461.843946 107.87767 
L 462.718554 125.702913 
L 463.593162 123.605825 
L 464.46777 135.139806 
L 465.342379 134.790291 
L 466.216987 138.634951 
L 467.091595 149.120388 
L 467.966203 167.994175 
L 468.840811 169.392233 
L 469.715419 166.945631 
L 470.590027 172.537864 
L 471.464636 164.848544 
L 472.339244 145.974757 
L 473.213852 164.499029 
L 474.08846 162.751456 
L 474.963068 151.916505 
L 475.837676 163.8 
L 476.712284 170.091262 
L 477.586893 166.945631 
L 478.461501 165.547573 
L 479.336109 198.401942 
L 480.210717 212.732039 
L 481.959933 178.829126 
L 482.834542 146.673786 
L 483.70915 162.401942 
L 484.583758 157.159223 
L 485.458366 133.392233 
L 486.332974 138.984466 
L 487.207582 119.062136 
L 488.08219 139.333981 
L 488.956799 152.266019 
L 489.831407 162.052427 
L 490.706015 195.95534 
L 491.580623 184.071845 
L 492.455231 183.023301 
L 493.329839 180.227184 
L 494.204447 185.120388 
L 495.079056 185.819417 
L 495.953664 185.469903 
L 496.828272 183.72233 
L 497.70288 169.042718 
L 498.577488 172.887379 
L 499.452096 171.139806 
L 500.326705 133.042718 
L 501.201313 144.576699 
L 502.075921 154.363107 
L 502.950529 160.654369 
L 504.699745 184.421359 
L 505.574353 178.479612 
L 506.448962 171.48932 
L 507.32357 175.333981 
L 508.198178 154.363107 
L 509.072786 141.081553 
L 509.947394 137.236893 
L 510.822002 140.03301 
L 511.696611 140.732039 
L 512.571219 150.867961 
L 513.445827 132.343689 
L 514.320435 130.246602 
L 515.195043 134.440777 
L 516.069651 144.576699 
L 516.944259 150.867961 
L 517.818868 136.887379 
L 518.693476 138.984466 
L 519.568084 121.508738 
L 520.442692 116.965049 
L 521.3173 123.256311 
L 522.191908 116.965049 
L 523.066516 123.256311 
L 523.941125 126.751456 
L 524.815733 124.304854 
L 525.690341 134.440777 
L 526.564949 142.479612 
L 527.439557 128.499029 
L 528.314165 127.450485 
L 529.188774 118.013592 
L 530.063382 111.72233 
L 530.93799 111.72233 
L 531.812598 124.654369 
L 532.687206 134.790291 
L 533.561814 127.100971 
L 534.436422 145.974757 
L 535.311031 123.95534 
L 536.185639 133.741748 
L 537.060247 126.751456 
L 537.934855 112.421359 
L 538.809463 154.363107 
L 539.684071 165.198058 
L 540.558679 179.87767 
L 541.433288 181.974757 
L 542.307896 192.809709 
L 543.182504 187.217476 
L 544.057112 144.576699 
L 544.93172 128.848544 
L 545.806328 125.702913 
L 546.680937 170.440777 
L 547.555545 77.819417 
L 548.430153 61.042718 
L 549.304761 106.479612 
L 550.179369 91.8 
L 551.053977 91.8 
L 551.928585 157.858252 
L 552.803194 146.673786 
L 553.677802 133.042718 
L 554.55241 115.56699 
L 555.427018 92.499029 
L 556.301626 98.091262 
L 557.176234 157.858252 
L 558.050842 184.421359 
L 559.800059 157.159223 
L 561.549275 131.994175 
L 562.423883 66.634951 
L 563.298491 42.168932 
L 564.1731 69.081553 
L 565.047708 111.72233 
L 565.922316 88.304854 
L 566.796924 58.246602 
L 568.54614 143.528155 
L 569.420748 158.557282 
L 570.295357 94.945631 
L 571.169965 96.343689 
L 572.044573 137.236893 
L 572.919181 160.654369 
L 573.793789 61.042718 
L 574.668397 61.042718 
L 575.543005 92.499029 
L 576.417614 60.343689 
L 576.417614 60.343689 
" style="fill:none;stroke:#1f77b4;stroke-linecap:square;stroke-width:1.5;"/>
   </g>
   <g id="line2d_17">
    <path clip-path="url(#pa727953733)" d="M 69.144886 160.304854 
L 70.019495 238.596117 
L 70.894103 271.100971 
L 71.768711 177.081553 
L 72.643319 176.732039 
L 73.517927 238.246602 
L 74.392535 241.741748 
L 75.267143 232.304854 
L 76.141752 234.401942 
L 77.01636 158.207767 
L 77.890968 195.605825 
L 78.765576 199.100971 
L 79.640184 228.11068 
L 80.514792 263.062136 
L 81.3894 206.790291 
L 82.264009 97.042718 
L 83.138617 86.557282 
L 84.013225 89.702913 
L 84.887833 101.935922 
L 85.762441 84.460194 
L 86.637049 81.664078 
L 87.511658 69.081553 
L 88.386266 64.537864 
L 89.260874 94.945631 
L 90.135482 82.712621 
L 91.01009 77.819417 
L 91.884698 66.285437 
L 92.759306 90.052427 
L 93.633915 78.867961 
L 94.508523 77.120388 
L 95.383131 82.363107 
L 96.257739 92.848544 
L 97.132347 99.838835 
L 98.006955 105.081553 
L 98.881563 92.848544 
L 99.756172 125.702913 
L 100.63078 85.159223 
L 101.505388 57.897087 
L 102.379996 66.285437 
L 103.254604 21.198058 
L 104.129212 25.042718 
L 105.003821 33.431068 
L 105.878429 40.421359 
L 106.753037 90.401942 
L 107.627645 83.761165 
L 108.502253 44.266019 
L 109.376861 24.343689 
L 111.126078 32.03301 
L 112.000686 49.508738 
L 112.875294 47.761165 
L 113.749902 61.392233 
L 114.62451 69.431068 
L 115.499118 83.761165 
L 116.373726 114.867961 
L 117.248335 113.120388 
L 118.122943 103.333981 
L 118.997551 71.178641 
L 119.872159 66.984466 
L 120.746767 57.547573 
L 121.621375 58.596117 
L 123.370592 109.625243 
L 124.2452 132.693204 
L 125.119808 65.236893 
L 125.994416 111.372816 
L 126.869024 65.236893 
L 127.743632 39.72233 
L 128.618241 36.926214 
L 129.492849 29.586408 
L 130.367457 61.392233 
L 131.242065 122.906796 
L 132.116673 130.596117 
L 132.991281 97.392233 
L 133.865889 85.159223 
L 134.740498 59.295146 
L 135.615106 80.615534 
L 136.489714 77.120388 
L 137.364322 87.256311 
L 138.23893 82.712621 
L 139.113538 88.304854 
L 139.988147 92.499029 
L 140.862755 83.41165 
L 141.737363 56.848544 
L 142.611971 72.227184 
L 143.486579 92.149515 
L 144.361187 97.392233 
L 145.235795 89.702913 
L 146.110404 69.431068 
L 146.985012 77.819417 
L 147.85962 83.761165 
L 148.734228 47.41165 
L 150.483444 41.819417 
L 151.358053 40.421359 
L 152.232661 52.304854 
L 153.107269 66.285437 
L 153.981877 68.732039 
L 154.856485 82.363107 
L 155.731093 85.858252 
L 156.605701 95.64466 
L 157.48031 76.421359 
L 158.354918 60.693204 
L 160.104134 50.557282 
L 160.978742 35.87767 
L 161.85335 39.72233 
L 162.727958 49.159223 
L 165.351783 32.03301 
L 166.226391 35.87767 
L 167.100999 35.178641 
L 167.975607 35.87767 
L 168.850216 35.178641 
L 169.724824 35.528155 
L 170.599432 83.062136 
L 171.47404 66.634951 
L 172.348648 71.87767 
L 173.223256 100.18835 
L 174.097864 82.712621 
L 174.972473 118.013592 
L 175.847081 109.625243 
L 176.721689 99.838835 
L 177.596297 93.897087 
L 179.345513 78.867961 
L 180.220121 70.130097 
L 181.09473 65.935922 
L 181.969338 57.897087 
L 182.843946 37.625243 
L 183.718554 37.275728 
L 184.593162 56.848544 
L 185.46777 58.246602 
L 186.342379 50.906796 
L 187.216987 47.062136 
L 188.091595 54.751456 
L 188.966203 50.207767 
L 189.840811 51.605825 
L 190.715419 57.547573 
L 191.590027 78.168932 
L 192.464636 86.906796 
L 193.339244 90.751456 
L 194.213852 106.130097 
L 195.08846 108.227184 
L 195.963068 122.557282 
L 196.837676 133.741748 
L 197.712284 116.965049 
L 198.586893 90.751456 
L 199.461501 57.897087 
L 200.336109 54.751456 
L 201.210717 72.926214 
L 202.085325 71.87767 
L 202.959933 42.867961 
L 203.834542 42.518447 
L 204.70915 44.615534 
L 205.583758 48.809709 
L 206.458366 46.363107 
L 207.332974 63.838835 
L 208.207582 73.974757 
L 209.08219 76.421359 
L 209.956799 86.557282 
L 210.831407 107.178641 
L 211.706015 85.508738 
L 212.580623 121.858252 
L 213.455231 130.246602 
L 214.329839 119.41165 
L 215.204447 89.003883 
L 216.079056 65.236893 
L 216.953664 66.634951 
L 217.828272 53.353398 
L 218.70288 63.48932 
L 219.577488 108.926214 
L 220.452096 104.732039 
L 221.326705 116.615534 
L 222.201313 124.654369 
L 223.075921 126.401942 
L 223.950529 176.382524 
L 224.825137 147.023301 
L 225.699745 133.741748 
L 226.574353 117.664078 
L 227.448962 91.8 
L 228.32357 86.557282 
L 229.198178 77.469903 
L 230.072786 73.275728 
L 230.947394 87.256311 
L 231.822002 117.664078 
L 232.696611 128.848544 
L 233.571219 146.673786 
L 234.445827 158.207767 
L 235.320435 127.100971 
L 236.195043 129.198058 
L 237.069651 125.003883 
L 237.944259 98.440777 
L 238.818868 100.887379 
L 239.693476 90.052427 
L 240.568084 81.664078 
L 241.442692 58.945631 
L 242.3173 50.906796 
L 243.191908 60.343689 
L 244.066516 49.858252 
L 244.941125 71.178641 
L 245.815733 87.95534 
L 246.690341 95.994175 
L 247.564949 90.401942 
L 248.439557 67.333981 
L 249.314165 55.100971 
L 250.188774 53.003883 
L 251.063382 91.450485 
L 251.93799 63.48932 
L 252.812598 61.741748 
L 253.687206 99.139806 
L 254.561814 163.8 
L 255.436422 166.246602 
L 256.311031 202.596117 
L 257.185639 203.64466 
L 258.060247 142.479612 
L 258.934855 72.576699 
L 259.809463 48.460194 
L 260.684071 84.11068 
L 261.558679 103.333981 
L 262.433288 117.314563 
L 263.307896 117.314563 
L 264.182504 151.56699 
L 265.057112 128.499029 
L 265.93172 135.838835 
L 266.806328 120.460194 
L 267.680937 128.848544 
L 268.555545 130.596117 
L 269.430153 141.431068 
L 270.304761 137.236893 
L 271.179369 140.03301 
L 272.928585 170.091262 
L 273.803194 179.178641 
L 274.677802 193.858252 
L 275.55241 191.062136 
L 276.427018 193.159223 
L 277.301626 197.003883 
L 278.176234 191.761165 
L 279.050842 180.926214 
L 279.925451 190.013592 
L 280.800059 176.03301 
L 281.674667 165.547573 
L 282.549275 148.421359 
L 283.423883 137.236893 
L 284.298491 135.48932 
L 285.1731 122.207767 
L 286.047708 113.120388 
L 286.922316 100.887379 
L 287.796924 129.897087 
L 288.671532 131.64466 
L 289.54614 131.994175 
L 290.420748 144.926214 
L 291.295357 109.625243 
L 292.169965 127.450485 
L 293.044573 152.266019 
L 293.919181 116.965049 
L 294.793789 135.838835 
L 295.668397 147.023301 
L 296.543005 180.227184 
L 297.417614 178.130097 
L 298.292222 162.052427 
L 299.16683 171.48932 
L 300.041438 209.586408 
L 300.916046 202.246602 
L 301.790654 185.469903 
L 302.665263 151.56699 
L 303.539871 161.003883 
L 305.289087 183.72233 
L 306.163695 191.062136 
L 307.038303 194.906796 
L 307.912911 183.023301 
L 308.78752 167.994175 
L 309.662128 181.625243 
L 310.536736 158.906796 
L 311.411344 155.062136 
L 312.285952 159.605825 
L 313.16056 181.275728 
L 314.035168 180.926214 
L 314.909777 202.945631 
L 315.784385 203.295146 
L 316.658993 202.945631 
L 317.533601 194.207767 
L 318.408209 215.178641 
L 319.282817 210.634951 
L 320.157426 208.537864 
L 321.032034 200.149515 
L 321.906642 224.965049 
L 322.78125 229.159223 
L 323.655858 237.198058 
L 324.530466 214.130097 
L 325.405074 228.460194 
L 326.279683 214.479612 
L 327.154291 218.324272 
L 328.028899 215.178641 
L 328.903507 201.547573 
L 329.778115 232.304854 
L 330.652723 221.819417 
L 331.527332 200.149515 
L 332.40194 185.819417 
L 333.276548 178.479612 
L 334.151156 176.03301 
L 335.025764 156.809709 
L 335.900372 165.897087 
L 336.77498 147.372816 
L 337.649589 162.751456 
L 338.524197 185.120388 
L 339.398805 186.518447 
L 340.273413 180.576699 
L 341.148021 177.081553 
L 342.022629 123.256311 
L 342.897237 149.120388 
L 343.771846 138.984466 
L 344.646454 144.926214 
L 345.521062 132.693204 
L 346.39567 137.586408 
L 347.270278 138.634951 
L 348.144886 162.401942 
L 349.019495 151.217476 
L 349.894103 164.499029 
L 350.768711 170.790291 
L 351.643319 172.18835 
L 352.517927 157.159223 
L 353.392535 152.965049 
L 354.267143 155.062136 
L 355.141752 132.343689 
L 356.01636 143.87767 
L 356.890968 131.295146 
L 358.640184 176.03301 
L 359.514792 165.897087 
L 360.3894 174.984466 
L 361.264009 122.207767 
L 362.138617 176.382524 
L 363.013225 165.547573 
L 363.887833 171.139806 
L 364.762441 162.751456 
L 365.637049 157.508738 
L 366.511658 145.974757 
L 367.386266 125.003883 
L 368.260874 153.664078 
L 369.135482 160.304854 
L 370.01009 185.819417 
L 370.884698 125.702913 
L 371.759306 176.382524 
L 372.633915 175.683495 
L 373.508523 176.732039 
L 374.383131 205.741748 
L 375.257739 205.042718 
L 376.132347 205.042718 
L 377.006955 208.537864 
L 377.881563 201.198058 
L 378.756172 195.605825 
L 379.63078 199.450485 
L 380.505388 201.198058 
L 381.379996 203.295146 
L 382.254604 206.790291 
L 383.129212 173.236893 
L 384.003821 166.246602 
L 384.878429 165.198058 
L 385.753037 162.052427 
L 386.627645 156.11068 
L 388.376861 167.295146 
L 389.251469 186.867961 
L 390.126078 202.596117 
L 391.000686 198.751456 
L 392.749902 181.974757 
L 393.62451 198.401942 
L 394.499118 178.130097 
L 395.373726 184.071845 
L 396.248335 184.770874 
L 397.122943 188.266019 
L 397.997551 195.256311 
L 398.872159 185.819417 
L 399.746767 205.392233 
L 400.621375 187.56699 
L 401.495984 187.916505 
L 402.370592 190.013592 
L 403.2452 193.159223 
L 404.119808 191.41165 
L 404.994416 186.867961 
L 405.869024 191.761165 
L 406.743632 184.071845 
L 407.618241 167.994175 
L 408.492849 156.809709 
L 409.367457 127.8 
L 410.242065 141.431068 
L 411.116673 139.683495 
L 411.991281 160.654369 
L 412.865889 142.829126 
L 413.740498 170.091262 
L 414.615106 167.994175 
L 415.489714 180.926214 
L 416.364322 185.819417 
L 417.23893 194.906796 
L 418.113538 174.285437 
L 418.988147 202.945631 
L 419.862755 174.285437 
L 420.737363 194.906796 
L 421.611971 159.95534 
L 422.486579 173.236893 
L 423.361187 132.693204 
L 424.235795 167.295146 
L 425.110404 126.751456 
L 425.985012 127.450485 
L 426.85962 146.673786 
L 427.734228 115.56699 
L 428.608836 156.11068 
L 429.483444 106.130097 
L 430.358053 129.897087 
L 431.232661 87.256311 
L 432.107269 102.984466 
L 432.981877 74.324272 
L 433.856485 107.528155 
L 434.731093 80.615534 
L 435.605701 93.198058 
L 436.48031 82.363107 
L 437.354918 109.625243 
L 438.229526 93.198058 
L 439.104134 100.887379 
L 439.978742 90.401942 
L 440.85335 109.974757 
L 441.727958 100.537864 
L 442.602567 82.013592 
L 443.477175 78.168932 
L 444.351783 75.372816 
L 445.226391 60.343689 
L 446.100999 50.557282 
L 446.975607 67.333981 
L 447.850216 108.926214 
L 448.724824 137.236893 
L 449.599432 114.518447 
L 450.47404 111.023301 
L 451.348648 88.304854 
L 452.223256 101.935922 
L 453.097864 101.935922 
L 453.972473 114.518447 
L 455.721689 98.790291 
L 456.596297 95.295146 
L 457.470905 100.887379 
L 458.345513 107.87767 
L 459.220121 129.897087 
L 460.09473 136.537864 
L 460.969338 116.965049 
L 461.843946 108.576699 
L 462.718554 118.712621 
L 463.593162 113.120388 
L 464.46777 116.615534 
L 465.342379 130.945631 
L 466.216987 138.634951 
L 467.091595 143.87767 
L 467.966203 159.605825 
L 468.840811 167.295146 
L 469.715419 158.906796 
L 470.590027 167.64466 
L 471.464636 161.702913 
L 472.339244 146.673786 
L 473.213852 160.304854 
L 474.08846 161.003883 
L 474.963068 161.353398 
L 475.837676 158.557282 
L 476.712284 169.392233 
L 477.586893 159.95534 
L 478.461501 170.440777 
L 479.336109 197.003883 
L 480.210717 201.897087 
L 481.959933 183.72233 
L 482.834542 148.421359 
L 483.70915 161.003883 
L 484.583758 153.314563 
L 485.458366 133.042718 
L 486.332974 138.634951 
L 487.207582 119.062136 
L 488.08219 139.333981 
L 488.956799 153.664078 
L 489.831407 164.149515 
L 490.706015 198.401942 
L 491.580623 185.120388 
L 492.455231 179.528155 
L 493.329839 162.751456 
L 494.204447 166.246602 
L 495.079056 187.217476 
L 495.953664 191.761165 
L 496.828272 193.508738 
L 497.70288 185.469903 
L 498.577488 171.48932 
L 499.452096 163.100971 
L 500.326705 133.741748 
L 501.201313 141.431068 
L 502.075921 151.56699 
L 502.950529 175.683495 
L 503.825137 183.372816 
L 504.699745 183.372816 
L 505.574353 181.974757 
L 506.448962 172.537864 
L 507.32357 173.586408 
L 508.198178 155.062136 
L 509.072786 142.130097 
L 509.947394 133.741748 
L 510.822002 139.683495 
L 511.696611 148.071845 
L 512.571219 159.95534 
L 513.445827 133.392233 
L 514.320435 129.198058 
L 515.195043 139.333981 
L 516.069651 142.479612 
L 516.944259 151.56699 
L 517.818868 141.431068 
L 518.693476 133.741748 
L 519.568084 122.557282 
L 520.442692 116.965049 
L 521.3173 125.702913 
L 522.191908 122.906796 
L 523.066516 126.751456 
L 523.941125 128.848544 
L 524.815733 124.654369 
L 525.690341 135.48932 
L 526.564949 143.528155 
L 527.439557 133.042718 
L 528.314165 127.100971 
L 529.188774 118.013592 
L 530.063382 113.819417 
L 530.93799 116.965049 
L 531.812598 126.052427 
L 532.687206 140.382524 
L 533.561814 124.654369 
L 534.436422 144.227184 
L 535.311031 126.751456 
L 536.185639 133.741748 
L 537.060247 126.751456 
L 537.934855 112.421359 
L 538.809463 150.168932 
L 539.684071 171.139806 
L 540.558679 178.829126 
L 541.433288 179.528155 
L 542.307896 181.625243 
L 543.182504 178.130097 
L 544.057112 142.479612 
L 544.93172 128.848544 
L 545.806328 125.702913 
L 546.680937 168.693204 
L 547.555545 96.693204 
L 548.430153 49.159223 
L 549.304761 84.809709 
L 550.179369 73.974757 
L 551.053977 64.887379 
L 551.928585 139.333981 
L 552.803194 120.460194 
L 553.677802 110.673786 
L 554.55241 48.11068 
L 555.427018 33.780583 
L 556.301626 27.48932 
L 557.176234 145.625243 
L 558.050842 173.586408 
L 558.925451 89.003883 
L 560.674667 152.615534 
L 561.549275 136.887379 
L 562.423883 100.887379 
L 563.298491 40.770874 
L 564.1731 69.081553 
L 565.047708 112.071845 
L 565.922316 92.149515 
L 566.796924 60.343689 
L 568.54614 143.528155 
L 569.420748 177.431068 
L 570.295357 94.945631 
L 571.169965 96.343689 
L 572.044573 136.18835 
L 572.919181 156.809709 
L 573.793789 61.042718 
L 574.668397 57.547573 
L 575.543005 92.499029 
L 576.417614 60.343689 
L 576.417614 60.343689 
" style="fill:none;stroke:#ff7f0e;stroke-dasharray:5.55,2.4;stroke-dashoffset:0;stroke-width:1.5;"/>
   </g>
   <g id="patch_3">
    <path d="M 43.78125 284.4 
L 43.78125 7.2 
" style="fill:none;stroke:#000000;stroke-linecap:square;stroke-linejoin:miter;stroke-width:0.8;"/>
   </g>
   <g id="patch_4">
    <path d="M 601.78125 284.4 
L 601.78125 7.2 
" style="fill:none;stroke:#000000;stroke-linecap:square;stroke-linejoin:miter;stroke-width:0.8;"/>
   </g>
   <g id="patch_5">
    <path d="M 43.78125 284.4 
L 601.78125 284.4 
" style="fill:none;stroke:#000000;stroke-linecap:square;stroke-linejoin:miter;stroke-width:0.8;"/>
   </g>
   <g id="patch_6">
    <path d="M 43.78125 7.2 
L 601.78125 7.2 
" style="fill:none;stroke:#000000;stroke-linecap:square;stroke-linejoin:miter;stroke-width:0.8;"/>
   </g>
   <g id="legend_1">
    <g id="patch_7">
     <path d="M 531.071875 279.4 
L 594.78125 279.4 
Q 596.78125 279.4 596.78125 277.4 
L 596.78125 249.04375 
Q 596.78125 247.04375 594.78125 247.04375 
L 531.071875 247.04375 
Q 529.071875 247.04375 529.071875 249.04375 
L 529.071875 277.4 
Q 529.071875 279.4 531.071875 279.4 
z
" style="fill:#ffffff;opacity:0.8;stroke:#cccccc;stroke-linejoin:miter;"/>
    </g>
    <g id="line2d_18">
     <path d="M 533.071875 255.142187 
L 553.071875 255.142187 
" style="fill:none;stroke:#1f77b4;stroke-linecap:square;stroke-width:1.5;"/>
    </g>
    <g id="line2d_19"/>
    <g id="text_18">
     <!-- ARF -->
     <defs>
      <path d="M 34.1875 63.1875 
L 20.796875 26.90625 
L 47.609375 26.90625 
z
M 28.609375 72.90625 
L 39.796875 72.90625 
L 67.578125 0 
L 57.328125 0 
L 50.6875 18.703125 
L 17.828125 18.703125 
L 11.1875 0 
L 0.78125 0 
z
" id="DejaVuSans-65"/>
      <path d="M 44.390625 34.1875 
Q 47.5625 33.109375 50.5625 29.59375 
Q 53.5625 26.078125 56.59375 19.921875 
L 66.609375 0 
L 56 0 
L 46.6875 18.703125 
Q 43.0625 26.03125 39.671875 28.421875 
Q 36.28125 30.8125 30.421875 30.8125 
L 19.671875 30.8125 
L 19.671875 0 
L 9.8125 0 
L 9.8125 72.90625 
L 32.078125 72.90625 
Q 44.578125 72.90625 50.734375 67.671875 
Q 56.890625 62.453125 56.890625 51.90625 
Q 56.890625 45.015625 53.6875 40.46875 
Q 50.484375 35.9375 44.390625 34.1875 
z
M 19.671875 64.796875 
L 19.671875 38.921875 
L 32.078125 38.921875 
Q 39.203125 38.921875 42.84375 42.21875 
Q 46.484375 45.515625 46.484375 51.90625 
Q 46.484375 58.296875 42.84375 61.546875 
Q 39.203125 64.796875 32.078125 64.796875 
z
" id="DejaVuSans-82"/>
      <path d="M 9.8125 72.90625 
L 51.703125 72.90625 
L 51.703125 64.59375 
L 19.671875 64.59375 
L 19.671875 43.109375 
L 48.578125 43.109375 
L 48.578125 34.8125 
L 19.671875 34.8125 
L 19.671875 0 
L 9.8125 0 
z
" id="DejaVuSans-70"/>
     </defs>
     <g transform="translate(561.071875 258.642187)scale(0.1 -0.1)">
      <use xlink:href="#DejaVuSans-65"/>
      <use x="68.408203" xlink:href="#DejaVuSans-82"/>
      <use x="137.890625" xlink:href="#DejaVuSans-70"/>
     </g>
    </g>
    <g id="line2d_20">
     <path d="M 533.071875 269.820312 
L 553.071875 269.820312 
" style="fill:none;stroke:#ff7f0e;stroke-dasharray:5.55,2.4;stroke-dashoffset:0;stroke-width:1.5;"/>
    </g>
    <g id="line2d_21"/>
    <g id="text_19">
     <!-- PEARL -->
     <defs>
      <path d="M 19.671875 64.796875 
L 19.671875 37.40625 
L 32.078125 37.40625 
Q 38.96875 37.40625 42.71875 40.96875 
Q 46.484375 44.53125 46.484375 51.125 
Q 46.484375 57.671875 42.71875 61.234375 
Q 38.96875 64.796875 32.078125 64.796875 
z
M 9.8125 72.90625 
L 32.078125 72.90625 
Q 44.34375 72.90625 50.609375 67.359375 
Q 56.890625 61.8125 56.890625 51.125 
Q 56.890625 40.328125 50.609375 34.8125 
Q 44.34375 29.296875 32.078125 29.296875 
L 19.671875 29.296875 
L 19.671875 0 
L 9.8125 0 
z
" id="DejaVuSans-80"/>
      <path d="M 9.8125 72.90625 
L 55.90625 72.90625 
L 55.90625 64.59375 
L 19.671875 64.59375 
L 19.671875 43.015625 
L 54.390625 43.015625 
L 54.390625 34.71875 
L 19.671875 34.71875 
L 19.671875 8.296875 
L 56.78125 8.296875 
L 56.78125 0 
L 9.8125 0 
z
" id="DejaVuSans-69"/>
      <path d="M 9.8125 72.90625 
L 19.671875 72.90625 
L 19.671875 8.296875 
L 55.171875 8.296875 
L 55.171875 0 
L 9.8125 0 
z
" id="DejaVuSans-76"/>
     </defs>
     <g transform="translate(561.071875 273.320312)scale(0.1 -0.1)">
      <use xlink:href="#DejaVuSans-80"/>
      <use x="60.302734" xlink:href="#DejaVuSans-69"/>
      <use x="123.486328" xlink:href="#DejaVuSans-65"/>
      <use x="191.894531" xlink:href="#DejaVuSans-82"/>
      <use x="261.376953" xlink:href="#DejaVuSans-76"/>
     </g>
    </g>
   </g>
  </g>
 </g>
 <defs>
  <clipPath id="pa727953733">
   <rect height="277.2" width="558" x="43.78125" y="7.2"/>
  </clipPath>
 </defs>
</svg>
